<?xml version="1.0" encoding="utf-8"?>
<!-- Generator: Adobe Illustrator 28.3.0, SVG Export Plug-In . SVG Version: 6.00 Build 0)  -->
<svg version="1.1" xmlns="http://www.w3.org/2000/svg" xmlns:xlink="http://www.w3.org/1999/xlink" x="0px" y="0px"
	 viewBox="0 0 512 512" style="enable-background:new 0 0 512 512;" xml:space="preserve">
<path d="M352,138c0-53-43-96-96-96s-96,43-96,96s43,96,96,96S352,191,352,138z M128,138c0-70.7,57.3-128,128-128s128,57.3,128,128
	s-57.3,128-128,128S128,208.7,128,138z M55.3,468.7c0.2,1.2,1.2,1.2,2.2,1.3c80.3,0.1,342.1,0,396.6,0c1.7-0.1,2.7-0.2,2.4-2.3
	c-0.2-1.8-1.3-5.1-3-10.5c-9.2-29.6-27.9-90.3-38-123c-1.6-4.4-1.8-8.6-7.1-8.2c-32.4,0.2-273.6-0.5-307.6,0.2c-1.3,0.3-2,1-2.8,2.7
	c-0.3,0.8-0.7,1.6-1,2.5C86,367.2,68.8,423.5,56.9,461.9C56.2,464.2,55.3,466.5,55.3,468.7L55.3,468.7z M73,295.2
	c1.3-1.4,3.3-1.1,5.1-1.2c80.7,0.6,323.7-1,360,0.5c1.3,0.3,2.1,2.9,2.8,4.7c13.5,42.4,34.8,111.2,49.7,158.3
	c2.4,7.4,3.7,11.9,5.9,18.8c1.9,7,7.1,17.7-0.1,23c-4.5,3.1-12.8,2.6-18.7,2.7c-57.9,0-386.8,0-441.6,0c-7-0.3-16,1.3-21.8-3.8
	c-5-5.8-0.7-14.6,1.3-21.9c1.5-4.7,2.8-9.1,4.3-13.7c13.5-43.8,36.6-116.3,50.9-162.1C71.3,298.6,71.9,296.7,73,295.2L73,295.2z"/>
</svg>
