<?xml version="1.0" encoding="utf-8"?>
<!-- Generator: Adobe Illustrator 16.0.0, SVG Export Plug-In . SVG Version: 6.00 Build 0)  -->
<!DOCTYPE svg PUBLIC "-//W3C//DTD SVG 1.1//EN" "http://www.w3.org/Graphics/SVG/1.1/DTD/svg11.dtd">
<svg version="1.1" id="Layer_1" xmlns="http://www.w3.org/2000/svg" xmlns:xlink="http://www.w3.org/1999/xlink" x="0px" y="0px"
	 width="26px" height="26px" viewBox="0 0 26 26" enable-background="new 0 0 26 26" xml:space="preserve">
<path d="M5.705,5.451H26l-2.085,11.928H7.529L5.705,5.451z M24.355,6.834H7.316l1.401,9.162h14.036L24.355,6.834z"/>
<path d="M18.84,20.434c0-1.621,1.318-2.938,2.938-2.938c1.621,0,2.939,1.317,2.939,2.938c0,1.619-1.318,2.938-2.939,2.938
	C20.158,23.371,18.841,22.053,18.84,20.434z M20.223,20.434c0,0.857,0.698,1.556,1.555,1.556c0.859,0,1.557-0.698,1.557-1.556
	c0-0.858-0.697-1.557-1.557-1.557C20.921,18.877,20.223,19.575,20.223,20.434z"/>
<path d="M6.742,20.434c0-1.621,1.316-2.938,2.938-2.938c1.62,0,2.938,1.317,2.938,2.938c0,1.619-1.318,2.938-2.938,2.938
	C8.059,23.371,6.741,22.053,6.742,20.434z M8.124,20.434c0,0.857,0.698,1.556,1.556,1.556c0.858,0,1.557-0.698,1.557-1.556
	c0-0.858-0.699-1.557-1.557-1.557S8.124,19.575,8.124,20.434z"/>
<rect x="6.741" y="8.333" width="17.803" height="1.383"/>
<polygon points="5.323,4.012 0,4.012 0,2.629 6.432,2.629 7.186,5.991 5.835,6.294 "/>
</svg>
