<?xml version="1.0" encoding="utf-8"?>
<!-- Generator: Adobe Illustrator 16.0.0, SVG Export Plug-In . SVG Version: 6.00 Build 0)  -->
<!DOCTYPE svg PUBLIC "-//W3C//DTD SVG 1.1//EN" "http://www.w3.org/Graphics/SVG/1.1/DTD/svg11.dtd">
<svg version="1.1" id="Layer_1" xmlns="http://www.w3.org/2000/svg" xmlns:xlink="http://www.w3.org/1999/xlink" x="0px" y="0px"
	 width="612px" height="612px" viewBox="0 90 612 612" enable-background="new 0 90 612 612" xml:space="preserve">
<path d="M591.695,619.835l-190.566,79.008l-189.663-75.066L20.302,698.805c-1.634,0.485-3.229,0.666-4.73,0.666
	c-7.8,0.038-13.565-5.785-13.565-14.544V192.125c0-10.431,8.236-21.298,18.297-24.082l191.382-75.514l189.407,76.891l190.604-74.887
	c1.634-0.447,3.229-0.665,4.73-0.665c7.79,0,13.565,5.785,13.565,14.544v487.301C609.992,606.145,601.756,617.022,591.695,619.835
	L591.695,619.835z M230,592.445l151.996,59.556V199.868L230,139.79V592.445L230,592.445z M40.004,648.522l151.997-56.153V140.083
	l-151.997,61.91V648.522L40.004,648.522z M571.992,143.066l-151.997,57.227V651.43l151.997-65.539V143.066L571.992,143.066
	L571.992,143.066z"/>
</svg>
