<?xml version="1.0" ?><svg id="Layer_1" style="enable-background:new 0 0 1000 1000;" version="1.1" viewBox="0 0 1000 1000" xml:space="preserve" xmlns="http://www.w3.org/2000/svg" xmlns:xlink="http://www.w3.org/1999/xlink"><style type="text/css">
	.st0{display:none;}
	.st1{display:inline;}
</style><g class="st0" id="Home_x40_2x.png"><g class="st1" id="XMLID_395_"><path d="M527.5,754.5c10,0,18.2-8.1,18.2-18.2c0-10-8.1-18.2-18.2-18.2c-10,0-18.2,8.1-18.2,18.2    C509.3,746.4,517.5,754.5,527.5,754.5z M904,487.1L763.9,347V154.5c0-10-8.1-18.2-18.2-18.2H636.6c-10,0-18.2,8.1-18.2,18.2v47    l-96.2-96.2c-3.3-3.3-7.8-5.3-12.9-5.3c-5,0-9.6,2-12.9,5.3L114.7,487.1c-3.3,3.3-5.3,7.8-5.3,12.9c0,10,8.1,18.2,18.2,18.2    c5,0,9.6-2,12.9-5.3l78.1-78.1v447c0,10,8.1,18.2,18.2,18.2h545.5c10,0,18.2-8.1,18.2-18.2v-447l78.1,78.1    c3.3,3.3,7.8,5.3,12.9,5.3c10,0,18.2-8.1,18.2-18.2C909.3,495,907.3,490.4,904,487.1z M654.8,172.7h72.7v137.9l-72.7-72.7V172.7z     M400.2,863.6H254.8v-36.4h145.5V863.6z M582.1,863.6H436.6V572.7h145.5V863.6z M763.9,863.6H618.4v-36.4h145.5V863.6z     M763.9,790.9H618.4V554.5c0-10-8.1-18.2-18.2-18.2H418.4c-10,0-18.2,8.1-18.2,18.2v236.4H254.8V398.4l254.5-254.5l254.5,254.5    V790.9z" id="XMLID_396_"/></g></g><g class="st0" id="Clock_1_x40_2x.png"><g class="st1" id="XMLID_451_"><path d="M372.7,720.5c-8.7-5-19.8-2-24.8,6.6c-5,8.7-2,19.8,6.7,24.8c8.7,5,19.8,2,24.8-6.7    C384.4,736.6,381.4,725.5,372.7,720.5z M354.5,248.1c-8.7,5-11.7,16.1-6.7,24.8c5,8.7,16.1,11.7,24.8,6.7    c8.7-5,11.7-16.1,6.7-24.8C374.4,246,363.2,243.1,354.5,248.1z M500,754.5c-10,0-18.2,8.1-18.2,18.2c0,10,8.1,18.2,18.2,18.2    c10,0,18.2-8.1,18.2-18.2C518.2,762.7,510,754.5,500,754.5z M272.9,347.9c-8.7-5-19.8-2-24.8,6.7c-5,8.7-2,19.8,6.7,24.8    c8.7,5,19.8,2,24.8-6.7C284.6,364,281.6,352.9,272.9,347.9z M627.3,279.6c8.7,5,19.8,2,24.8-6.7c5-8.7,2-19.8-6.7-24.8    c-8.7-5-19.8-2-24.8,6.7C615.6,263.4,618.6,274.5,627.3,279.6z M227.3,481.8c-10,0-18.2,8.1-18.2,18.2c0,10,8.1,18.2,18.2,18.2    c10,0,18.2-8.1,18.2-18.2C245.5,490,237.3,481.8,227.3,481.8z M254.7,620.6c-8.7,5-11.7,16.1-6.7,24.8c5,8.7,16.1,11.7,24.8,6.7    c8.7-5,11.7-16.1,6.6-24.8C274.5,618.6,263.4,615.6,254.7,620.6z M772.7,481.8c-10,0-18.2,8.1-18.2,18.2c0,10,8.1,18.2,18.2,18.2    c10,0,18.2-8.1,18.2-18.2C790.9,490,782.8,481.8,772.7,481.8z M727.1,347.9c-8.7,5-11.7,16.2-6.6,24.8c5,8.7,16.1,11.7,24.8,6.7    c8.7-5,11.7-16.1,6.7-24.8C746.9,345.9,735.8,342.9,727.1,347.9z M500,100c-220.9,0-400,179.1-400,400c0,220.9,179.1,400,400,400    c220.9,0,400-179.1,400-400C900,279.1,720.9,100,500,100z M500,863.6c-200.8,0-363.6-162.8-363.6-363.6S299.2,136.4,500,136.4    c200.8,0,363.6,162.8,363.6,363.6S700.8,863.6,500,863.6z M627.3,720.5c-8.7,5-11.7,16.1-6.7,24.8c5,8.7,16.1,11.7,24.8,6.7    c8.7-5,11.7-16.1,6.7-24.8C647.1,718.4,636,715.4,627.3,720.5z M663.6,481.8h-93.5c-6.6-25.4-26.5-45.4-52-52V227.3    c0-10-8.1-18.2-18.2-18.2c-10,0-18.2,8.1-18.2,18.2v202.6c-31.3,8.1-54.5,36.3-54.5,70.2c0,40.2,32.6,72.7,72.7,72.7    c33.9,0,62-23.2,70.2-54.5h93.5c10,0,18.2-8.1,18.2-18.2C681.8,490,673.7,481.8,663.6,481.8z M500,536.4    c-20.1,0-36.4-16.3-36.4-36.4c0-20.1,16.3-36.4,36.4-36.4c20.1,0,36.4,16.3,36.4,36.4C536.4,520.1,520.1,536.4,500,536.4z     M745.3,620.6c-8.7-5-19.8-2-24.8,6.7c-5,8.7-2,19.8,6.6,24.8c8.7,5,19.8,2,24.8-6.7C757,636.8,754,625.6,745.3,620.6z" id="XMLID_452_"/></g></g><g class="st0" id="Book_x40_2x.png"><g class="st1" id="XMLID_251_"><path d="M754.5,100H245.5c-40.2,0-72.7,32.6-72.7,72.7v654.5c0,40.2,32.6,72.7,72.7,72.7h509.1    c40.2,0,72.7-32.6,72.7-72.7V172.7C827.3,132.6,794.7,100,754.5,100z M609.1,136.4h72.7v127.3l-36.4-36.4l-36.4,36.4V136.4z     M318.2,863.6h-72.7c-20.1,0-36.4-16.3-36.4-36.4V172.7c0-20.1,16.3-36.4,36.4-36.4h72.7V863.6z M790.9,827.3    c0,20.1-16.3,36.4-36.4,36.4h-400V136.4h218.2v218.2l72.7-72.7l72.7,72.7V136.4h36.4c20.1,0,36.4,16.3,36.4,36.4V827.3z" id="XMLID_261_"/></g></g><g class="st0" id="Video_2_x40_2x.png"><g class="st1" id="XMLID_523_"><path d="M827.3,100H172.7c-40.2,0-72.7,32.6-72.7,72.7v654.5c0,40.2,32.6,72.7,72.7,72.7h654.5    c40.2,0,72.7-32.6,72.7-72.7V172.7C900,132.6,867.4,100,827.3,100z M245.5,863.6h-72.7c-20.1,0-36.4-16.3-36.4-36.4V518.2h109.1    V863.6z M245.5,481.8H136.4V172.7c0-20.1,16.3-36.4,36.4-36.4h72.7V481.8z M718.2,863.6H281.8V136.4h436.4V863.6z M863.6,827.3    c0,20.1-16.3,36.4-36.4,36.4h-72.7V518.2h109.1V827.3z M863.6,481.8H754.5V136.4h72.7c20.1,0,36.4,16.3,36.4,36.4V481.8z     M172.7,209.1h36.4v-36.4h-36.4V209.1z M172.7,427.3h36.4v-36.4h-36.4V427.3z M172.7,281.8h36.4v-36.4h-36.4V281.8z M172.7,354.5    h36.4v-36.4h-36.4V354.5z M209.1,645.5h-36.4v36.4h36.4V645.5z M209.1,572.7h-36.4v36.4h36.4V572.7z M209.1,718.2h-36.4v36.4h36.4    V718.2z M209.1,790.9h-36.4v36.4h36.4V790.9z M827.3,790.9h-36.4v36.4h36.4V790.9z M827.3,645.5h-36.4v36.4h36.4V645.5z     M827.3,718.2h-36.4v36.4h36.4V718.2z M790.9,427.3h36.4v-36.4h-36.4V427.3z M790.9,354.5h36.4v-36.4h-36.4V354.5z M790.9,209.1    h36.4v-36.4h-36.4V209.1z M827.3,572.7h-36.4v36.4h36.4V572.7z M409.1,645.5c4.3,0,8.1-1.7,11.2-4.2l0.2,0.2l200-127.3l-0.2-0.2    c4.2-3.3,7-8.2,7-14c0-5.7-2.8-10.7-7-14l0.2-0.2l-200-127.3l-0.2,0.2c-3.1-2.5-6.9-4.2-11.2-4.2c-10,0-18.2,8.1-18.2,18.2v254.5    C390.9,637.3,399,645.5,409.1,645.5z M427.3,405.7L575.4,500l-148.2,94.3V405.7z M790.9,281.8h36.4v-36.4h-36.4V281.8z" id="XMLID_524_"/></g></g><g class="st0" id="Photo_x40_2x.png"><g class="st1" id="XMLID_350_"><path d="M300,390.9c50.2,0,90.9-40.7,90.9-90.9c0-50.2-40.7-90.9-90.9-90.9c-50.2,0-90.9,40.7-90.9,90.9    C209.1,350.2,249.8,390.9,300,390.9z M300,245.5c30.1,0,54.5,24.4,54.5,54.5c0,30.1-24.4,54.5-54.5,54.5    c-30.1,0-54.5-24.4-54.5-54.5C245.5,269.9,269.9,245.5,300,245.5z M827.3,100H172.7c-40.2,0-72.7,32.6-72.7,72.7v654.5    c0,40.2,32.6,72.7,72.7,72.7h654.5c40.2,0,72.7-32.6,72.7-72.7V172.7C900,132.6,867.4,100,827.3,100z M863.6,827.3    c0,20.1-16.3,36.4-36.4,36.4H172.7c-20.1,0-36.4-16.3-36.4-36.4V172.7c0-20.1,16.3-36.4,36.4-36.4h654.5    c20.1,0,36.4,16.3,36.4,36.4V827.3z M789.6,766l-0.1-0.1c-1-2.4-2.5-4.5-4.3-6.2L626,529.6l-0.1,0c-2.7-6.7-9.2-11.5-16.8-11.5    c-5,0-9.6,2-12.9,5.3L520.8,599l-94.9-142.3c-2.7-6.6-9.2-11.2-16.8-11.2c-6.3,0-11.6,3.4-14.8,8.3l-0.3-0.2L212.1,762.6l0.3,0.2    c-1.9,2.9-3.3,6.2-3.3,9.9c0,10,8.1,18.2,18.2,18.2h545.5c10,0,18.2-8.1,18.2-18.2C790.9,770.3,790.4,768.1,789.6,766L789.6,766z     M259,754.5l151.2-257l91.2,136.8c0.9,2.2,2.2,4.1,3.8,5.8l0.1,0.1c3.3,3.3,7.8,5.3,12.9,5.3s9.6-2,12.9-5.3l75.8-75.8    l131.7,190.3H259z" id="XMLID_351_"/></g></g><g class="st0" id="Box_Download_x40_2x.png"><g class="st1" id="XMLID_203_"><path d="M390.9,536.4c-10,0-18.2,8.1-18.2,18.2c0,5,2,9.6,5.3,12.9l109.1,109.1c3.3,3.3,7.8,5.3,12.9,5.3    c5,0,9.6-2,12.9-5.3l109.1-109.1c3.3-3.3,5.3-7.8,5.3-12.9c0-10-8.1-18.2-18.2-18.2c-5,0-9.6,2-12.9,5.3l-78.1,78.1V118.2    c0,0,0,0,0,0c0-10-8.1-18.2-18.2-18.2c-10,0-18.2,8.1-18.2,18.2v501.6l-78.1-78.1C400.5,538.4,395.9,536.4,390.9,536.4z     M863.6,281.8H572.7c-10,0-18.2,8.1-18.2,18.2c0,10,8.1,18.2,18.2,18.2h290.9v72.7H572.7c-10,0-18.2,8.1-18.2,18.2    c0,10,8.1,18.2,18.2,18.2h218.2v436.4H209.1V427.3h218.2c10,0,18.2-8.1,18.2-18.2c0-10-8.1-18.2-18.2-18.2H136.4v-72.7h290.9    c10,0,18.2-8.1,18.2-18.2c0-10-8.1-18.2-18.2-18.2H136.4c-20.1,0-36.4,16.3-36.4,36.4v72.7c0,20.1,16.3,36.4,36.4,36.4h36.4v436.4    c0,20.1,16.3,36.4,36.4,36.4h581.8c20.1,0,36.4-16.3,36.4-36.4V427.3h36.4c20.1,0,36.4-16.3,36.4-36.4v-72.7    C900,298.1,883.7,281.8,863.6,281.8z" id="XMLID_210_"/></g></g><g class="st0" id="Box_Upload_x40_2x.png"><g class="st1" id="XMLID_130_"><path d="M390.9,245.5c5,0,9.6-2,12.9-5.3l78.1-78.1v501.6c0,0,0,0,0,0c0,10,8.1,18.2,18.2,18.2    c10,0,18.2-8.1,18.2-18.2V162.1l78.1,78.1c3.3,3.3,7.8,5.3,12.9,5.3c10,0,18.2-8.1,18.2-18.2c0-5-2-9.6-5.3-12.9L512.9,105.3    c-3.3-3.3-7.8-5.3-12.9-5.3c-5,0-9.6,2-12.9,5.3L378.1,214.4c-3.3,3.3-5.3,7.8-5.3,12.9C372.7,237.3,380.9,245.5,390.9,245.5z     M863.6,281.8H572.7c-10,0-18.2,8.1-18.2,18.2c0,10,8.1,18.2,18.2,18.2h290.9v72.7H572.7c-10,0-18.2,8.1-18.2,18.2    c0,10,8.1,18.2,18.2,18.2h218.2v436.4H209.1V427.3h218.2c10,0,18.2-8.1,18.2-18.2c0-10-8.1-18.2-18.2-18.2H136.4v-72.7h290.9    c10,0,18.2-8.1,18.2-18.2c0-10-8.1-18.2-18.2-18.2H136.4c-20.1,0-36.4,16.3-36.4,36.4v72.7c0,20.1,16.3,36.4,36.4,36.4h36.4v436.4    c0,20.1,16.3,36.4,36.4,36.4h581.8c20.1,0,36.4-16.3,36.4-36.4V427.3h36.4c20.1,0,36.4-16.3,36.4-36.4v-72.7    C900,298.1,883.7,281.8,863.6,281.8z" id="XMLID_137_"/></g></g><g class="st0" id="Box_with_Video_Files_x40_2x.png"><g class="st1" id="XMLID_358_"><path d="M873.9,303.7h-73.9l-22.7-84.9c-10.7-39.9-51.7-63.6-91.6-52.9l-114.5,30.7L417.9,108    c-35.8-20.7-81.5-8.4-102.2,27.4l-97.2,168.3h-92.5c-20.7,0-37.4,16.7-37.4,37.4v74.8c0,20.7,16.7,37.4,37.4,37.4h37.4v411.3    c0,20.7,16.7,37.4,37.4,37.4h598.3c20.7,0,37.4-16.8,37.4-37.4V453.2h37.4c20.7,0,37.4-16.7,37.4-37.4v-74.8    C911.3,320.4,894.6,303.7,873.9,303.7z M695.4,202c20-5.4,40.4,6.5,45.8,26.4l20.1,75.2h-4.6l-48.1-27.8l6.1-1.6l-9.7-36.1    l-36.1,9.7l1.6,6.1l-45.8-26.4l-1.6-6.1L695.4,202z M681.9,303.7H434.5l61.9-107.2L681.9,303.7z M348.1,154.1    c10.3-17.9,33.2-24,51.1-13.7l64.8,37.4l-72.7,125.9H308l-2.3-1.3l-0.8,1.3h-43.2L348.1,154.1z M799.2,864.6H200.8V453.2h598.3    V864.6z M873.9,415.8H126.1v-74.8h747.9V415.8z M387.8,640.2h224.4c20.7,0,37.4-16.7,37.4-37.4v-37.4c0-20.7-16.7-37.4-37.4-37.4    H387.8c-20.7,0-37.4,16.7-37.4,37.4v37.4C350.4,623.5,367.2,640.2,387.8,640.2z M387.8,565.4h224.4v37.4H387.8V565.4z     M375.5,256.3l-32.4-18.7L324.4,270l32.4,18.7L375.5,256.3z M412.9,191.5l-32.4-18.7l-18.7,32.4l32.4,18.7L412.9,191.5z" id="XMLID_359_"/></g></g><g class="st0" id="Paper_Airplane_x40_2x.png"><g class="st1" id="XMLID_276_"><path d="M276.5,640.1l18.2-18.2c3.3-3.3,5.3-7.8,5.3-12.9c0-10-8.1-18.2-18.2-18.2c-5,0-9.6,2-12.9,5.3    l-18.2,18.2c-3.3,3.3-5.3,7.8-5.3,12.9c0,10,8.1,18.2,18.2,18.2C268.7,645.5,273.2,643.4,276.5,640.1z M390.9,627.3    c0-10.1-8.1-18.2-18.2-18.2c-5,0-9.6,2-12.9,5.3L178.1,796.2c-3.3,3.3-5.3,7.8-5.3,12.9c0,10,8.1,18.2,18.2,18.2    c5,0,9.6-2,12.9-5.3l181.8-181.8C388.9,636.8,390.9,632.3,390.9,627.3z M390.9,700c-5,0-9.6,2-12.9,5.3l-54.5,54.5    c-3.3,3.3-5.3,7.8-5.3,12.9c0,10,8.1,18.2,18.2,18.2c5,0,9.6-2,12.9-5.3l54.5-54.5c3.3-3.3,5.3-7.8,5.3-12.9    C409.1,708.1,400.9,700,390.9,700z M900,118.2c0-10-8.1-18.2-18.2-18.2c-2.8,0-5.4,0.7-7.8,1.9l-0.1-0.1L111.2,428.7    c-0.1,0-0.1,0-0.2,0.1l-0.7,0.3l0.1,0.1c-6.1,2.9-10.4,9.1-10.4,16.3c0,8.3,5.6,15,13.1,17.2l-0.1,0.3l300.4,123.7l123.7,300.4    l0.3-0.1c2.2,7.5,8.9,13.1,17.2,13.1c7.2,0,13.4-4.3,16.3-10.4l0.1,0.1l0.3-0.7c0-0.1,0-0.1,0.1-0.2L898.2,126l-0.2-0.1    C899.2,123.6,900,121,900,118.2z M165,445.2l637.3-273.1L422.9,551.4L165,445.2z M554.8,835L448.6,577.1l379.3-379.3L554.8,835z" id="XMLID_278_"/></g></g><g id="Toggles_3_x40_2x.png"><g id="XMLID_332_"><path d="M825.8,101.8H174.2c-40,0-72.4,32.4-72.4,72.4v651.7c0,40,32.4,72.4,72.4,72.4h651.7    c40,0,72.4-32.4,72.4-72.4V174.2C898.2,134.2,865.8,101.8,825.8,101.8z M862,825.8c0,20-16.2,36.2-36.2,36.2H174.2    c-20,0-36.2-16.2-36.2-36.2V174.2c0-20,16.2-36.2,36.2-36.2h651.7c20,0,36.2,16.2,36.2,36.2V825.8z M771.5,681H533.6    c-8.1-31.2-36.2-54.3-69.8-54.3c-33.7,0-61.8,23.1-69.8,54.3H228.5c-10,0-18.1,8.1-18.1,18.1c0,10,8.1,18.1,18.1,18.1H394    c8.1,31.2,36.2,54.3,69.8,54.3c33.7,0,61.8-23.1,69.8-54.3h237.9c10,0,18.1-8.1,18.1-18.1C789.6,689.1,781.5,681,771.5,681z     M463.8,735.3c-20,0-36.2-16.2-36.2-36.2c0-20,16.2-36.2,36.2-36.2c20,0,36.2,16.2,36.2,36.2C500,719.1,483.8,735.3,463.8,735.3z     M771.5,282.8H461.2c-8.1-31.2-36.2-54.3-69.8-54.3c-33.7,0-61.8,23.1-69.8,54.3h-93.1c-10,0-18.1,8.1-18.1,18.1    c0,10,8.1,18.1,18.1,18.1h93.1c8.1,31.2,36.2,54.3,69.8,54.3c33.7,0,61.8-23.1,69.8-54.3h310.3c10,0,18.1-8.1,18.1-18.1    C789.6,290.9,781.5,282.8,771.5,282.8z M391.4,337.1c-20,0-36.2-16.2-36.2-36.2c0-20,16.2-36.2,36.2-36.2    c20,0,36.2,16.2,36.2,36.2C427.6,320.9,411.4,337.1,391.4,337.1z M771.5,481.9h-56.9c-8.1-31.2-36.2-54.3-69.8-54.3    c-33.7,0-61.8,23.1-69.8,54.3H228.5c-10,0-18.1,8.1-18.1,18.1c0,10,8.1,18.1,18.1,18.1H575c8.1,31.2,36.2,54.3,69.8,54.3    c33.7,0,61.8-23.1,69.8-54.3h56.9c10,0,18.1-8.1,18.1-18.1C789.6,490,781.5,481.9,771.5,481.9z M644.8,536.2    c-20,0-36.2-16.2-36.2-36.2s16.2-36.2,36.2-36.2c20,0,36.2,16.2,36.2,36.2S664.8,536.2,644.8,536.2z" id="XMLID_333_"/></g></g><g class="st0" id="Settings_1_x40_2x.png"><g class="st1" id="XMLID_236_"><path d="M873.6,420l-38.5-9.6c-7.9-29.7-19.7-57.7-34.8-83.7l20.5-34.1c6.3-12.2,10.4-27.3,0-37.7l-75.5-75.5    c-4.7-4.7-10.5-6.6-16.5-6.6c-7.3,0-14.9,2.8-21.3,6.6l-34.4,20.6c-25.9-15-53.9-26.7-83.4-34.6l-9.7-38.8    c-4.2-13.1-12-26.7-26.7-26.7H446.6c-14.7,0-23.3,13.6-26.7,26.7l-9.7,38.8c-29.6,7.9-57.5,19.6-83.4,34.6l-34.4-20.6    c-6.4-3.8-14-6.6-21.3-6.6c-6,0-11.8,1.8-16.5,6.6l-75.5,75.5c-10.4,10.4-6.3,25.5,0,37.7l20.5,34.1c-15.1,26-26.8,54-34.8,83.7    l-38.5,9.6c-13.1,3.3-26.7,11.9-26.7,26.7v106.7c0,14.7,13.6,22.5,26.7,26.7l38.5,9.6c7.9,29.7,19.7,57.7,34.8,83.7l-20.5,34.2    c-6.9,11.6-10.4,27.3,0,37.7l75.5,75.5c4.6,4.6,10.1,6.4,15.9,6.4c7.3,0,15-2.8,21.9-6.4l34.4-20.6c25.9,14.9,53.9,26.7,83.4,34.6    l9.7,38.8c3.3,13.1,12,26.7,26.7,26.7h106.7c14.7,0,22.5-13.6,26.7-26.7l9.7-38.8c29.6-7.9,57.5-19.6,83.4-34.6l34.4,20.6    c6.8,3.5,14.6,6.4,21.9,6.4c5.8,0,11.3-1.8,15.9-6.4l75.5-75.5c10.4-10.4,6.9-26.1,0-37.7l-20.5-34.2c15.1-26,26.8-54,34.8-83.7    l38.5-9.6c13.1-4.2,26.7-11.9,26.7-26.7V446.6C900.2,431.9,886.6,423.3,873.6,420z M863.9,544.9c-0.1,0.1-0.3,0.1-0.4,0.1    l-37.2,9.3c-12.8,3.2-22.9,13.1-26.3,25.9c-7,26.2-17.5,51.3-31.1,74.9c-6.7,11.5-6.6,25.6,0.3,37l20,33.4l-63.6,63.6    c-0.1-0.1-0.3-0.1-0.4-0.2l-33.2-19.9c-5.8-3.5-12.2-5.2-18.7-5.2c-6.3,0-12.6,1.6-18.2,4.9c-23.5,13.6-48.6,24-74.6,30.9    c-12.8,3.4-22.7,13.5-25.9,26.3l-9.4,37.5c-0.1,0.1-0.1,0.3-0.1,0.4H455l-9.5-38c-3.2-12.8-13.1-22.9-25.9-26.3    c-26-7-51.1-17.4-74.7-30.9c-5.6-3.3-11.9-4.9-18.2-4.9c-6.5,0-13,1.7-18.7,5.2l-33.2,19.9c-0.1,0.1-0.2,0.1-0.4,0.2l-63.5-63.6    l20-33.4c6.8-11.4,6.9-25.5,0.3-37c-13.6-23.5-24.1-48.7-31.1-74.9c-3.4-12.8-13.5-22.7-26.3-25.9l-37.2-9.3    c-0.1,0-0.3-0.1-0.4-0.1V455l37.6-9.4c12.8-3.2,22.9-13.1,26.3-25.9c7-26.2,17.5-51.3,31.1-74.9c6.6-11.5,6.5-25.6-0.3-37    l-19.8-33c-0.1-0.1-0.1-0.2-0.2-0.4l63.6-63.6l33.6,20.1c5.8,3.4,12.2,5.2,18.7,5.2c6.3,0,12.5-1.6,18.2-4.9    c23.5-13.6,48.6-24,74.6-30.9c12.8-3.4,22.7-13.5,25.9-26.3l9.5-38h89.9c0.1,0.1,0.1,0.3,0.1,0.4l9.4,37.6    c3.2,12.8,13.1,22.9,25.9,26.3c26,6.9,51.1,17.4,74.6,30.9c5.6,3.3,11.9,4.9,18.2,4.9c6.5,0,13-1.7,18.7-5.2l33.6-20.1l63.6,63.6    c-0.1,0.1-0.1,0.2-0.2,0.4l-19.8,33c-6.8,11.4-6.9,25.5-0.3,37c13.6,23.5,24.1,48.7,31.1,74.9c3.4,12.8,13.5,22.7,26.3,25.9    l37.6,9.4V544.9z M500,318.1c-100.5,0-181.9,81.5-181.9,181.9c0,100.5,81.4,181.9,181.9,181.9c100.5,0,181.9-81.4,181.9-181.9    C681.9,399.5,600.5,318.1,500,318.1z M500,645.5c-80.4,0-145.5-65.2-145.5-145.5S419.6,354.5,500,354.5S645.5,419.6,645.5,500    S580.4,645.5,500,645.5z" id="XMLID_237_"/></g></g><g class="st0" id="User_Male_x40_2x.png"><g class="st1" id="XMLID_169_"><path d="M500,101.8c-219.9,0-398.2,178.3-398.2,398.2S280.1,898.2,500,898.2S898.2,719.9,898.2,500    S719.9,101.8,500,101.8z M500,862c-90.1,0-172.4-33.1-235.7-87.6c48.8-42.7,72.1-54.4,126-78.2c62.4-27.6,83.6-76.4,58.3-134    c-4.6-10.3-9.9-19.9-15.5-30.1c-19.3-34.7-41.6-74.1-41.6-164c0-106.4,50.5-107.2,90.6-107.9c28.5-0.5,42.4-5.4,53.5-9.3    c7.4-2.7,11.9-4.2,20.1-4.2c33.5,0,70.5,33.1,70.5,126c0,93.7-14,116.7-35.4,154.9c-5.6,10-11.7,20.9-18.2,34    c-12.5,25.3-15,49-7.5,70.4c9.6,27.5,34.6,50,78.6,70.9c36.1,17,73.9,50.3,94.2,69.6C674.2,828.1,591.2,862,500,862z M764,747.2    c-21.6-20.7-63.3-57.5-104.8-77.1c-34.2-16.2-53.8-32.5-59.9-50c-4.2-12.1-2.3-26,5.8-42.5c6.1-12.4,11.9-22.8,17.3-32.3    c22.6-40.3,40-69.4,40-172.6c0-154.3-89.1-162.2-106.7-162.2c-14.4,0-23.5,3.2-32.2,6.3c-9.6,3.4-19.5,6.9-42,7.3    c-40.8,0.7-126.2,2.1-126.2,144.1c0,99.3,25.8,144.9,46.2,181.6c5.2,9.4,10.1,18.3,14,27.1c17.3,39.2,4.7,66.6-39.8,86.3    c-56.1,24.8-82.5,37.7-137.7,86.2C176.1,684.4,138,596.7,138,500c0-200,162.1-362,362-362S862,300,862,500    C862,595.7,824.6,682.5,764,747.2z" id="XMLID_170_"/></g></g><g class="st0" id="User_Female_x40_2x.png"><g class="st1" id="XMLID_141_"><path d="M500,98C278,98,98,278,98,500s180,402,402,402c222,0,402-180,402-402S722,98,500,98z M500,865.5    c-86,0-164.9-29.9-227.3-79.6c24.9-32.6,74.5-68,118.2-82.3c26.4-8.6,41.6-21.6,45.4-38.6c4.7-21.4-11.6-37.3-13.5-39    c-4.7-4.4-11.7-5.9-17.8-4.1c-1.4,0.4-31.3,8.7-80.3-13.4c14.8-25.6,27.4-78,27.4-182.7c0-167.7,74.6-181.6,157.6-181.6    c57.9,0,134.8,19.8,134.8,190.7c0,97.2,15.3,145.7,30.4,170c-20.7,7.9-53.6,17.1-89.4,14c-8-0.8-15.1,3.7-18.3,10.9    c-6.9,15.6-7.4,50.8,40.1,72c37,16.6,82.2,41.4,117.9,85.7C663.1,836.2,585,865.5,500,865.5z M752.8,763.5    c-40.1-49.6-89.9-76.9-130.6-95.1c-9-4-14.7-8.4-18.1-12.4c61-1.2,108.8-28,111.1-29.3c6.3-3.6,9.9-10.6,9.1-17.8    c-0.7-6.6-5-12.3-11-14.9c-2.6-1.8-32.3-25.9-32.3-159.1c0-150.8-57.6-227.3-171.3-227.3c-96,0-194.1,25.9-194.1,218.1    c0,139.6-23.3,166.5-26.9,169.8c-6.2,1.8-11,6.8-12.6,13.3c-1.9,7.9,1.6,16,8.6,20.1c51.4,29.8,91.8,32.5,113.5,30.9    c-2.6,2.2-8,5.6-18.6,9.1c-50.4,16.4-104.1,54.8-134.2,93C177.1,695.4,134.5,602.7,134.5,500c0-201.8,163.6-365.5,365.5-365.5    c201.8,0,365.5,163.6,365.5,365.5C865.5,603.6,822.1,697,752.8,763.5z" id="XMLID_151_"/></g></g><g class="st0" id="Bell_x40_2x.png"><g class="st1" id="XMLID_196_"><path d="M827.4,663.7c0-127.3-145.5-127.3-145.5-309.2c0-75.1-45.6-139.6-110.6-167.3c0.9-4.7,1.5-9.6,1.5-14.5    c0-40.2-32.6-72.7-72.7-72.7s-72.7,32.6-72.7,72.7c0,5,0.5,9.8,1.5,14.5c-65,27.7-110.6,92.2-110.6,167.3    c0,181.9-145.5,181.9-145.5,309.2c0,55.5,91.4,102.5,218.8,120c-0.2,2.4-0.5,4.8-0.5,7.3c0,60.3,48.9,109.1,109.1,109.1    S609.1,851.3,609.1,791c0-2.5-0.3-4.9-0.5-7.3C735.9,766.2,827.4,719.2,827.4,663.7z M500,136.3c20.1,0,36.4,16.3,36.4,36.4    S520.1,209,500,209s-36.4-16.3-36.4-36.4S479.9,136.3,500,136.3z M262,564.9c41.2-43.1,92.5-96.7,92.5-210.4    c0-60.8,37.5-112.9,90.6-134.6c13.3,15.5,32.9,25.5,54.9,25.5s41.6-10,54.9-25.5c53.1,21.7,90.6,73.8,90.6,134.6    c0,113.6,51.3,167.3,92.5,210.4c7.9,8.2,15.1,15.9,21.6,23.4C724.8,621.4,622,645.5,500,645.5c-121.9,0-224.8-24-259.8-57.1    C246.8,580.8,254.1,573.1,262,564.9z M500,863.7c-40.2,0-72.7-32.6-72.7-72.7c0-1.1,0.2-2.1,0.3-3.2c23.3,2.1,47.5,3.2,72.5,3.2    s49.1-1.2,72.5-3.2c0.1,1.1,0.3,2.1,0.3,3.2C572.7,831.2,540.2,863.7,500,863.7z M500,754.6c-188.3,0-291-60.1-291-90.9    c0-19.6,4.7-35,12.5-49c49.8,39.7,155.6,67.2,278.5,67.2c122.9,0,228.7-27.5,278.5-67.3c7.8,14,12.5,29.5,12.5,49.1    C791,694.5,688.3,754.6,500,754.6z" id="XMLID_197_"/></g></g><g class="st0" id="Microphone"><g class="st1" id="XMLID_173_"><path d="M718.2,536.4v-54.5c0-10-8.1-18.2-18.2-18.2c-10,0-18.2,8.1-18.2,18.2v54.5    c0,100.4-81.4,181.8-181.8,181.8c-100.4,0-181.8-81.4-181.8-181.8v-54.5c0-10-8.1-18.2-18.2-18.2c-10,0-18.2,8.1-18.2,18.2v54.5    c0,114.4,88,208,200,217.3v110H354.5c-10,0-18.2,8.1-18.2,18.2c0,10,8.1,18.2,18.2,18.2h290.9c10,0,18.2-8.1,18.2-18.2    c0-10.1-8.1-18.2-18.2-18.2H518.2v-110C630.2,744.4,718.2,650.7,718.2,536.4z M500,681.8c80.3,0,145.5-65.1,145.5-145.5V245.5    c0-80.3-65.1-145.5-145.5-145.5c-80.3,0-145.5,65.1-145.5,145.5v290.9C354.5,616.7,419.7,681.8,500,681.8z M390.9,245.5    c0-60.2,48.8-109.1,109.1-109.1c60.3,0,109.1,48.8,109.1,109.1v145.5H390.9V245.5z M390.9,427.3h218.2v109.1    c0,60.3-48.8,109.1-109.1,109.1c-60.2,0-109.1-48.8-109.1-109.1V427.3z" id="XMLID_174_"/></g></g></svg>
