<?xml version="1.0" ?><!DOCTYPE svg  PUBLIC '-//W3C//DTD SVG 1.1//EN'  'http://www.w3.org/Graphics/SVG/1.1/DTD/svg11.dtd'><svg enable-background="new 0 0 48 48" height="48px" id="Layer_1" version="1.1" viewBox="0 0 48 48" width="48px" xml:space="preserve" xmlns="http://www.w3.org/2000/svg" xmlns:xlink="http://www.w3.org/1999/xlink"><g><path d="M28.158,48c-0.896,0-1.711-0.348-2.299-0.984l-8.281-8.279c-0.613-0.617-0.949-1.422-0.949-2.268V21.157L0.951,5.48   C0.033,4.609-0.258,3.19,0.25,1.966C0.775,0.764,1.938,0,3.217,0h41.568c1.281,0,2.443,0.764,2.959,1.948   c0.518,1.242,0.227,2.661-0.715,3.553L31.375,21.157v23.626c0,1.281-0.768,2.443-1.951,2.959C29.082,47.871,28.643,48,28.158,48z    M3.217,2.274c-0.369,0-0.721,0.233-0.873,0.582C2.203,3.197,2.277,3.604,2.537,3.85l16.367,16.366v16.253   c0,0.24,0.102,0.477,0.283,0.658l8.313,8.313c0.189,0.203,0.393,0.285,0.658,0.285c0.084,0,0.236-0.025,0.412-0.092   c0.293-0.129,0.529-0.48,0.529-0.85V20.216L45.443,3.872c0.281-0.269,0.357-0.675,0.209-1.033   c-0.146-0.331-0.496-0.564-0.867-0.564H3.217z"/></g></svg>
