<?xml version="1.0" encoding="utf-8"?>
<!-- Generator: Adobe Illustrator 16.0.0, SVG Export Plug-In . SVG Version: 6.00 Build 0)  -->
<!DOCTYPE svg PUBLIC "-//W3C//DTD SVG 1.1//EN" "http://www.w3.org/Graphics/SVG/1.1/DTD/svg11.dtd">
<svg version="1.1" id="Layer_1" xmlns="http://www.w3.org/2000/svg" xmlns:xlink="http://www.w3.org/1999/xlink" x="0px" y="0px"
	 width="630px" height="630px" viewBox="-61.853 131.018 630 630" enable-background="new -61.853 131.018 630 630"
	 xml:space="preserve">
<path d="M-22.9,700.5c-20.182,0-36.601-16.419-36.601-36.6V237.1c0-20.181,16.419-36.6,36.601-36.6h550.8
	c20.181,0,36.6,16.419,36.6,36.6v426.801c0,20.181-16.419,36.6-36.6,36.6H-22.9z M-27.1,663.901c0,2.314,1.884,4.197,4.2,4.197
	h550.8c2.314,0,4.198-1.883,4.198-4.197V395.299H425.9c-8.933,0-16.2-7.267-16.2-16.199s7.268-16.2,16.2-16.2h106.199v-28.8H425.9
	c-8.933,0-16.2-7.268-16.2-16.2s7.268-16.2,16.2-16.2h106.199v-64.6c0-2.316-1.884-4.2-4.198-4.2H-22.9c-2.316,0-4.2,1.884-4.2,4.2
	v64.6H79.1c8.933,0,16.199,7.268,16.199,16.2s-7.267,16.2-16.199,16.2H-27.1v28.8H79.1c8.933,0,16.199,7.268,16.199,16.2
	s-7.267,16.199-16.199,16.199H-27.1V663.901z"/>
<path d="M230.875,372.452c-23.119,0-39.144-0.641-50.787-9.191c-14.655-10.764-14.688-27.682-14.688-55.684
	c-1.859-10.293,3.803-20.568,13.521-24.486l0.146-0.055c1.866-0.643,3.828-0.959,5.883-0.959c15.008,0,37.232,17.725,66.066,52.687
	c29.514-35.44,51.14-52.681,66.075-52.681c2.037,0,3.985,0.314,5.791,0.935l0.146,0.053c9.77,3.938,15.432,14.214,13.57,24.507
	c-0.02,29.029-2.376,46.504-14.665,55.666C309.65,372.4,288.818,372.4,251,372.4c-3.796,0-7.403,0.015-10.836,0.026l-0.646,0.002
	C236.504,372.44,233.626,372.452,230.875,372.452z M196.424,339.956c7.951,2.819,16.249,4.293,24.681,4.385
	c-8.34-9.633-17.496-18.608-27.293-26.756C193.858,327.659,194.15,337.754,196.424,339.956z M308.187,317.588
	c-9.735,8.106-18.835,17.029-27.129,26.602c8.319-0.031,16.519-1.418,24.382-4.12C307.837,338.069,308.14,327.823,308.187,317.588z"
	/>
<path d="M138.8,617.2c-7.829,0-14.199-6.369-14.199-14.199V454h-6.2c-7.83,0-14.2-6.371-14.2-14.201V378.6
	c0-7.83,6.37-14.2,14.2-14.2h265.199c7.83,0,14.2,6.37,14.2,14.2v61.199c0,7.83-6.37,14.201-14.2,14.201H377.4v149
	c0,7.83-6.37,14.199-14.2,14.199H138.8z M349,588.799V454h-53.2v134.799H349z M267.4,588.799V454h-32.8v134.799H267.4z
	 M206.2,588.799V454H153v134.799H206.2z M369.4,425.6v-32.801H295.8V425.6H369.4z M267.4,425.6v-32.801h-32.8V425.6H267.4z
	 M206.2,425.6v-32.801h-73.6V425.6H206.2z"/>
</svg>
