<?xml version="1.0" ?><!DOCTYPE svg  PUBLIC '-//W3C//DTD SVG 1.1//EN'  'http://www.w3.org/Graphics/SVG/1.1/DTD/svg11.dtd'><svg height="32px" id="Layer_1" style="enable-background:new 0 0 32 32;" version="1.1" viewBox="0 0 32 32" width="32px" xml:space="preserve" xmlns="http://www.w3.org/2000/svg" xmlns:xlink="http://www.w3.org/1999/xlink"><path d="M31.999,10L31.999,10c0,2.21-0.896,4.21-2.342,5.657l0.049,0.051  L16.707,28.706l0,0c-0.182,0.182-0.432,0.293-0.707,0.293c-0.276,0-0.525-0.111-0.708-0.293l0,0L2.293,15.707l0.049-0.051  C0.896,14.209,0,12.209,0,10l0,0l0,0h0.025c0.26-4.461,3.949-8,8.475-8c3.248,0,6.069,1.825,7.5,4.503  c1.432-2.678,4.251-4.503,7.5-4.503c4.525,0,8.214,3.54,8.475,8H31.999L31.999,10L31.999,10z M23.5,4c-3.421,0-6.218,2.644-6.476,6  H17c0,0.552-0.448,1-1,1s-1-0.449-1-1h-0.025C14.718,6.644,11.921,4,8.5,4C5.08,4,2.281,6.644,2.025,10H1.999l0,0l0,0  c0,1.364,0.456,2.623,1.224,3.63c1.096,1.439,4.364,4.354,4.161,4.34L16,26.586l8.616-8.616c-0.203,0.015,2.583-2.662,3.673-3.774  c1.059-1.082,1.712-2.563,1.712-4.196l0,0l0,0h-0.026C29.719,6.644,26.92,4,23.5,4L23.5,4z" style="fill-rule:evenodd;clip-rule:evenodd;"/></svg>
