<?xml version="1.0" encoding="utf-8"?>
<!-- Generator: Adobe Illustrator 16.0.0, SVG Export Plug-In . SVG Version: 6.00 Build 0)  -->
<!DOCTYPE svg PUBLIC "-//W3C//DTD SVG 1.1//EN" "http://www.w3.org/Graphics/SVG/1.1/DTD/svg11.dtd">
<svg version="1.1" id="Layer_1" xmlns="http://www.w3.org/2000/svg" xmlns:xlink="http://www.w3.org/1999/xlink" x="0px" y="0px"
	 width="612px" height="612px" viewBox="0 90 612 612" enable-background="new 0 90 612 612" xml:space="preserve">
<path d="M6.342,396.807L291.554,98.058c3.582-3.742,8.531-5.842,13.708-5.842c5.169,0,10.118,2.108,13.71,5.842l286.682,298.74
	c7.268,7.571,7.012,19.589-0.559,26.865c-7.572,7.258-19.59,7.049-26.865-0.561l-25.535-26.619v284.3c0,10.497-8.512,19-19,19
	h-132.73c-10.469,0-18.961-8.465-19-18.943l-0.598-189.796H229.968v189.739c0,10.497-8.503,19-19,19H78.285
	c-10.497,0-18.999-8.503-18.999-19V396.389l-25.526,26.742c-3.733,3.876-8.721,5.842-13.709,5.842c-4.73,0-9.48-1.748-13.157-5.311
	C-0.668,416.404-0.916,404.378,6.342,396.807L6.342,396.807z M97.282,362.047v299.737h94.685v-189.73
	c0-10.496,8.502-18.999,18.999-18.999h189.332c10.469,0,18.963,8.464,19,18.942l0.6,189.797h94.797V362.047
	c0-1.567,0.246-3.068,0.598-4.531L305.251,138.65L96.597,357.269C97.006,358.808,97.282,360.394,97.282,362.047L97.282,362.047z"/>
</svg>
