<?xml version="1.0" encoding="utf-8"?>
<!-- Generator: Adobe Illustrator 16.0.0, SVG Export Plug-In . SVG Version: 6.00 Build 0)  -->
<!DOCTYPE svg PUBLIC "-//W3C//DTD SVG 1.1 Tiny//EN" "http://www.w3.org/Graphics/SVG/1.1/DTD/svg11-tiny.dtd">
<svg version="1.1" baseProfile="tiny" id="Layer_1" xmlns="http://www.w3.org/2000/svg" xmlns:xlink="http://www.w3.org/1999/xlink"
	 x="0px" y="0px" width="24px" height="24px" viewBox="0 0 24 24" xml:space="preserve">
<path d="M21,7H8C7.448,7,7,6.552,7,6s0.448-1,1-1h13c0.553,0,1,0.448,1,1S21.553,7,21,7z"/>
<path d="M21,13H8c-0.552,0-1-0.447-1-1c0-0.552,0.448-1,1-1h13c0.553,0,1,0.448,1,1C22,12.553,21.553,13,21,13z"/>
<path d="M21,19H8c-0.552,0-1-0.447-1-1s0.448-1,1-1h13c0.553,0,1,0.447,1,1S21.553,19,21,19z"/>
<path d="M3,7C2.74,7,2.48,6.89,2.29,6.71C2.11,6.52,2,6.26,2,6c0-0.26,0.11-0.52,0.29-0.71c0.37-0.37,1.05-0.37,1.42,0
	C3.89,5.48,4,5.74,4,6c0,0.26-0.11,0.52-0.29,0.71C3.52,6.89,3.26,7,3,7z"/>
<path d="M3,13c-0.26,0-0.52-0.11-0.71-0.29C2.11,12.52,2,12.27,2,12c0-0.26,0.11-0.52,0.29-0.71c0.38-0.37,1.04-0.37,1.42,0
	C3.89,11.48,4,11.74,4,12c0,0.26-0.11,0.52-0.29,0.71C3.52,12.89,3.26,13,3,13z"/>
<path d="M3,19c-0.27,0-0.52-0.11-0.71-0.29C2.11,18.52,2,18.26,2,18s0.11-0.521,0.29-0.71c0.37-0.37,1.04-0.37,1.42,0
	C3.89,17.479,4,17.74,4,18s-0.11,0.52-0.29,0.71C3.52,18.89,3.26,19,3,19z"/>
</svg>
