<?xml version="1.0" encoding="utf-8"?>
<!-- Generator: Adobe Illustrator 16.0.0, SVG Export Plug-In . SVG Version: 6.00 Build 0)  -->
<!DOCTYPE svg PUBLIC "-//W3C//DTD SVG 1.1//EN" "http://www.w3.org/Graphics/SVG/1.1/DTD/svg11.dtd">
<svg version="1.1" id="Layer_1" xmlns="http://www.w3.org/2000/svg" xmlns:xlink="http://www.w3.org/1999/xlink" x="0px" y="0px"
	 width="612px" height="612px" viewBox="0 90 612 612" enable-background="new 0 90 612 612" xml:space="preserve">
<path d="M303.826,92.007c124.627,0,230.168,106.141,230.168,231.88c0,131.667-122.328,266.317-204.615,360.954
	c-0.313,0.38-13.613,15.152-29.999,15.152h-1.454c-16.387,0-29.591-14.772-29.924-15.152
	C190.777,596.065,78.006,449.692,78.006,323.887C78.006,198.148,160.332,92.007,303.826,92.007L303.826,92.007z M296.207,659.353
	c0.665,0.665,1.635,1.406,2.489,2.024c0.873-0.599,1.823-1.358,2.525-2.023l9.937-11.429
	c78.014-89.497,184.838-212.054,184.838-324.038c0-105.096-88.006-193.891-192.17-193.891c-129.748,0-187.82,97.373-187.82,193.891
	C116.005,408.9,176.643,521.776,296.207,659.353L296.207,659.353z M305.336,207.059c62.955,0,113.998,51.042,113.998,113.997
	c0,62.956-51.043,113.998-113.998,113.998s-113.997-51.042-113.997-113.998C191.339,258.101,242.381,207.059,305.336,207.059z
	 M305.336,397.054c41.904,0,76.873-34.921,76.873-76.834c0-41.903-34.096-75.998-75.998-75.998
	c-41.933,0-75.999,34.095-75.999,75.998C230.193,362.133,263.404,397.055,305.336,397.054L305.336,397.054z"/>
</svg>
