<?xml version="1.0" encoding="utf-8"?>
<!-- Generator: Adobe Illustrator 16.0.0, SVG Export Plug-In . SVG Version: 6.00 Build 0)  -->
<!DOCTYPE svg PUBLIC "-//W3C//DTD SVG 1.1//EN" "http://www.w3.org/Graphics/SVG/1.1/DTD/svg11.dtd">
<svg version="1.1" id="Layer_1" xmlns="http://www.w3.org/2000/svg" xmlns:xlink="http://www.w3.org/1999/xlink" x="0px" y="0px"
	 width="612px" height="612px" viewBox="0 90 612 612" enable-background="new 0 90 612 612" xml:space="preserve">
<path d="M534.172,321.071h-16.147c-1.308,0.355-2.494,0.949-3.802,1.188c-33.961,5.226-60.799,33.486-63.055,66.617
	c-2.611,37.049,18.525,68.397,52.961,78.609c4.512,1.308,9.262,2.256,13.893,3.443h16.15c1.068-0.355,2.021-0.949,3.205-1.068
	c31.35-5.104,55.219-27.666,61.986-58.541c0.477-2.375,1.188-4.75,1.781-7.125v-16.149c-0.355-1.069-0.949-2.137-1.068-3.206
	c-4.986-30.874-26.955-54.386-57.475-61.511C539.633,322.615,536.902,321.783,534.172,321.071L534.172,321.071z M77.709,470.93
	H93.86c1.306-0.356,2.493-0.95,3.8-1.069c34.199-5.344,60.917-33.724,63.055-67.209c2.375-36.932-19-68.161-53.556-78.256
	c-4.394-1.306-8.906-2.256-13.3-3.324H77.71c-1.069,0.355-2.019,0.949-3.087,1.188c-30.875,5.7-51.062,23.631-60.681,53.555
	c-1.306,3.918-2.019,8.075-3.087,12.112v16.15c0.355,1.068,0.949,2.137,1.068,3.206c5.105,30.992,26.955,54.386,57.474,61.511
	C72.247,469.505,74.979,470.218,77.709,470.93L77.709,470.93z M297.867,470.93h16.147c1.308-0.356,2.494-0.95,3.802-1.188
	c34.08-5.344,61.512-34.792,62.938-68.041c1.662-37.406-20.9-69.111-55.693-78.018c-3.682-0.95-7.362-1.78-11.043-2.612h-16.149
	c-1.307,0.355-2.494,0.949-3.8,1.188c-34.081,5.225-61.512,34.793-63.055,68.042c-1.781,37.405,20.899,69.109,55.692,78.017
	C290.505,469.267,294.187,470.098,297.867,470.93z"/>
</svg>
