<?xml version="1.0" encoding="utf-8"?>
<!-- Generator: Adobe Illustrator 16.0.0, SVG Export Plug-In . SVG Version: 6.00 Build 0)  -->
<!DOCTYPE svg PUBLIC "-//W3C//DTD SVG 1.1//EN" "http://www.w3.org/Graphics/SVG/1.1/DTD/svg11.dtd">
<svg version="1.1" id="Layer_1" xmlns="http://www.w3.org/2000/svg" xmlns:xlink="http://www.w3.org/1999/xlink" x="0px" y="0px"
	 width="612px" height="612px" viewBox="0 90 612 612" enable-background="new 0 90 612 612" xml:space="preserve">
<path d="M514.994,282.003c-31.283,0-58.955-15.191-76.254-38.522L188.563,370.968c2.175,7.989,3.439,16.349,3.439,25.032
	c0,10.868-1.91,21.26-5.272,30.979l251.602,122.082c17.27-23.636,45.133-39.063,76.662-39.063c52.469,0,94.998,42.54,94.998,94.998
	c0,52.468-42.529,94.997-94.998,94.997c-52.467,0-94.998-42.529-94.998-94.997c0-7.382,0.932-14.525,2.518-21.423l-255.211-123.84
	c-17.385,19.162-42.388,31.266-70.298,31.266c-52.467,0-94.998-42.53-94.998-94.999c0-52.458,42.53-94.998,94.998-94.998
	c30.219,0,57.075,14.146,74.469,36.137l251.212-128.029c-1.699-7.106-2.688-14.478-2.688-22.106
	c0-52.467,42.529-94.998,94.998-94.998c52.467,0,94.998,42.53,94.998,94.998C609.992,239.473,567.461,282.003,514.994,282.003
	L514.994,282.003z M514.996,661.993c31.473,0,56.998-25.525,56.998-56.998c0-31.474-25.525-56.999-56.998-56.999
	s-57,25.525-57,56.999C457.996,636.468,483.523,661.993,514.996,661.993z M97.004,339C65.522,339,40.005,364.527,40.005,396
	c0,31.473,25.516,57,56.999,57c31.473,0,56.999-25.525,56.999-57C154.003,364.527,128.478,339,97.004,339L97.004,339z
	 M514.996,130.006c-31.473,0-57,25.526-57,56.999c0,31.473,25.527,56.999,57,56.999s56.998-25.526,56.998-56.999
	C571.994,155.532,546.469,130.006,514.996,130.006z"/>
</svg>
