<?xml version="1.0" encoding="utf-8"?>
<!-- Generator: Adobe Illustrator 16.0.0, SVG Export Plug-In . SVG Version: 6.00 Build 0)  -->
<!DOCTYPE svg PUBLIC "-//W3C//DTD SVG 1.1//EN" "http://www.w3.org/Graphics/SVG/1.1/DTD/svg11.dtd">
<svg version="1.1" id="Layer_1" xmlns="http://www.w3.org/2000/svg" xmlns:xlink="http://www.w3.org/1999/xlink" x="0px" y="0px"
	 width="32px" height="32px" viewBox="0 0 32 32" enable-background="new 0 0 32 32" xml:space="preserve">
<path d="M31.706,30.293c0.183,0.182,0.293,0.432,0.293,0.708c0,0.551-0.446,0.998-0.998,0.998c-0.276,0-0.526-0.11-0.708-0.293l0,0
	l-8.842-8.84C19.178,24.814,16.229,26,13,26C5.821,26,0,20.18,0,13C0,5.821,5.821,0,13,0c7.18,0,13,5.82,13,13
	c0,3.23-1.186,6.177-3.134,8.452L31.706,30.293L31.706,30.293L31.706,30.293z M13,1.999c-6.075,0-11.001,4.926-11.001,11
	c0,6.076,4.926,11,11.001,11s11-4.925,11-11C24,6.925,19.075,1.999,13,1.999L13,1.999z M18,14H8c-0.552,0-1-0.447-1-1
	c0-0.552,0.448-1,1-1h10c0.552,0,1,0.448,1,1C19,13.553,18.552,14,18,14L18,14z"/>
<path d="M14,8v10c0,0.552-0.447,1-1,1c-0.552,0-1-0.448-1-1V8c0-0.552,0.448-1,1-1C13.553,7,14,7.448,14,8L14,8z"/>
</svg>
